<svg xmlns="http://www.w3.org/2000/svg" xmlns:xlink="http://www.w3.org/1999/xlink">
    <symbol id="facebook" width="11" height="18" viewBox="0 0 11 18">
        <path
            d="M3.44005 9.922C3.37405 9.922 1.92205 9.922 1.26205 9.922C0.910049 9.922 0.800049 9.79 0.800049 9.46C0.800049 8.58 0.800049 7.678 0.800049 6.798C0.800049 6.446 0.932049 6.336 1.26205 6.336H3.44005C3.44005 6.27 3.44005 4.994 3.44005 4.4C3.44005 3.52 3.59405 2.684 4.03404 1.914C4.49604 1.122 5.15604 0.594 5.99204 0.286C6.54204 0.0879998 7.09204 0 7.68604 0H9.84204C10.15 0 10.282 0.132 10.282 0.44V2.948C10.282 3.256 10.15 3.388 9.84204 3.388C9.24804 3.388 8.65404 3.388 8.06004 3.41C7.46604 3.41 7.15804 3.696 7.15804 4.312C7.13604 4.972 7.15804 5.61 7.15804 6.292H9.71004C10.062 6.292 10.194 6.424 10.194 6.776V9.438C10.194 9.79 10.084 9.9 9.71004 9.9C8.91804 9.9 7.22404 9.9 7.15804 9.9V17.072C7.15804 17.446 7.04804 17.578 6.65204 17.578C5.72804 17.578 4.82604 17.578 3.90205 17.578C3.57205 17.578 3.44005 17.446 3.44005 17.116C3.44005 14.806 3.44005 9.988 3.44005 9.922Z" />
    </symbol>
    <symbol id="instagram" width="19" height="18" viewBox="0 0 19 18">
        <path
            d="M13.7817 0.000976562H4.78187C2.30715 0.000976562 0.281982 2.02615 0.281982 4.50087V13.5011C0.281982 15.9751 2.30715 18.001 4.78187 18.001H13.7817C16.2564 18.001 18.2815 15.9751 18.2815 13.5011V4.50087C18.2815 2.02615 16.2564 0.000976562 13.7817 0.000976562ZM16.7815 13.5011C16.7815 15.1548 15.4363 16.5009 13.7817 16.5009H4.78187C3.12794 16.5009 1.78202 15.1548 1.78202 13.5011V4.50087C1.78202 2.84672 3.12794 1.50101 4.78187 1.50101H13.7817C15.4363 1.50101 16.7815 2.84672 16.7815 4.50087V13.5011Z" />
        <path fill-rule="evenodd" clip-rule="evenodd"
            d="M1.28161 9.50098C0.881611 4.30098 2.44828 2.00098 3.28161 1.50098L7.78162 1.00098L14.7816 1.50098L16.2816 2.50098L17.2816 4.50098V9.00098V12.501L16.7816 15.501L15.7816 16.501L13.2816 17.501H10.7816L5.78162 17.001C4.94828 17.001 3.18161 16.901 2.78162 16.501C2.7459 16.4653 2.71019 16.4321 2.67447 16.3989C2.21019 15.9678 1.7459 15.5367 1.28161 9.50098ZM9.28163 4.50098C6.79588 4.50098 4.78174 6.51534 4.78174 9.00087C4.78174 11.4855 6.79588 13.5012 9.28163 13.5012C11.7667 13.5012 13.7815 11.4855 13.7815 9.00087C13.7815 6.51534 11.7667 4.50098 9.28163 4.50098ZM9.28163 12.0012C7.62497 12.0012 6.28177 10.658 6.28177 9.00087C6.28177 7.34377 7.62497 6.00101 9.28163 6.00101C10.9383 6.00101 12.2815 7.34377 12.2815 9.00087C12.2815 10.658 10.9383 12.0012 9.28163 12.0012ZM15.2822 4.12546C15.2822 4.74677 14.7785 5.25043 14.1572 5.25043C13.5359 5.25043 13.0322 4.74677 13.0322 4.12546C13.0322 3.50416 13.5359 3.00049 14.1572 3.00049C14.7785 3.00049 15.2822 3.50416 15.2822 4.12546Z" />
    </symbol>
    <symbol id="twitter" width="21" height="17" viewBox="0 0 21 17">
        <path
            d="M20.8 2.00249C20.02 2.34049 19.214 2.57449 18.356 2.67849C19.24 2.15849 19.916 1.32649 20.228 0.312488C19.396 0.806488 18.486 1.14449 17.524 1.35249C16.744 0.520488 15.626 0.000488281 14.404 0.000488281C12.038 0.000488281 10.14 1.92449 10.14 4.26449C10.14 4.60249 10.166 4.91449 10.244 5.22649C6.708 5.07049 3.588 3.35449 1.482 0.780488C-0.0259998 3.48449 1.664 5.72049 2.782 6.47449C2.106 6.47449 1.43 6.26649 0.858 5.95449C0.858 8.06049 2.34 9.80249 4.264 10.1925C3.848 10.3225 2.912 10.4005 2.34 10.2705C2.886 11.9605 4.472 13.2085 6.318 13.2345C4.862 14.3785 2.73 15.2885 0 15.0025C1.898 16.2245 4.134 16.9265 6.552 16.9265C14.404 16.9265 18.668 10.4265 18.668 4.81049C18.668 4.62849 18.668 4.44649 18.642 4.26449C19.526 3.61449 20.254 2.86049 20.8 2.00249Z" />
    </symbol>
</svg>