<svg width="40" height="41" viewBox="0 0 40 41" fill="none" xmlns="http://www.w3.org/2000/svg">
<g clip-path="url(#clip0_67_255)">
<path d="M39.1316 18.2987C39.9189 17.5314 40.1969 16.4052 39.8573 15.3584C39.5169 14.3115 38.6302 13.5642 37.5409 13.4056L27.8557 11.9983C27.4432 11.9383 27.0867 11.6796 26.9025 11.3055L22.5725 2.52938C22.0863 1.5434 21.0996 0.930664 19.9998 0.930664C18.9009 0.930664 17.9141 1.5434 17.4279 2.52938L13.0971 11.3055C12.9129 11.6796 12.5557 11.9383 12.1432 11.9983L2.45798 13.4064C1.36948 13.5642 0.482813 14.3115 0.142405 15.3584C-0.197203 16.4052 0.0807308 17.5314 0.868076 18.2987L7.87568 25.1293C8.17444 25.4209 8.31141 25.8406 8.24092 26.2507L6.58694 35.8966C6.40111 36.9803 6.83764 38.0544 7.72751 38.7016C8.61657 39.3496 9.77396 39.4337 10.7487 38.9203L19.4103 34.366C19.7796 34.1722 20.2201 34.1722 20.5893 34.366L29.2517 38.9203C29.6746 39.1429 30.1328 39.2527 30.5885 39.2527C31.1805 39.2527 31.77 39.0676 32.273 38.7016C33.1628 38.0544 33.5994 36.9803 33.4135 35.8966L31.7587 26.2515C31.6883 25.8406 31.8252 25.4217 32.124 25.1301L39.1316 18.2987ZM30.1809 26.5222L31.8348 36.1674C31.9181 36.6527 31.7299 37.1165 31.331 37.4064C30.9314 37.6956 30.434 37.7308 29.9974 37.5034L21.335 32.9483C20.9177 32.7296 20.458 32.6191 19.9998 32.6191C19.5417 32.6191 19.0827 32.7296 18.6646 32.9491L10.0038 37.5034C9.56571 37.7308 9.06832 37.6956 8.66944 37.4064C8.27056 37.1165 8.08313 36.6535 8.16563 36.1674L9.81962 26.5222C9.97901 25.5915 9.67064 24.6415 8.99463 23.9831L1.98622 17.1517C1.63299 16.8073 1.51285 16.3219 1.66583 15.8534C1.81802 15.384 2.20007 15.062 2.68786 14.9907L12.3723 13.5834C13.307 13.4481 14.1152 12.8618 14.5325 12.0144L18.8633 3.23823C19.0811 2.7961 19.5064 2.53259 19.999 2.53259C20.4924 2.53259 20.9169 2.7961 21.1356 3.23823L25.4664 12.0144C25.8837 12.8618 26.6911 13.4481 27.6258 13.5834L37.311 14.9907C37.7988 15.062 38.1809 15.384 38.333 15.8534C38.4852 16.3219 38.3659 16.8073 38.0126 17.1517L31.005 23.9823C30.329 24.6415 30.0207 25.5907 30.1809 26.5222Z" fill="white"/>
</g>
<defs>
<clipPath id="clip0_67_255">
<rect width="40" height="40" fill="white" transform="translate(0 0.092041)"/>
</clipPath>
</defs>
</svg>
