<svg width="46" height="47" viewBox="0 0 46 47" fill="none" xmlns="http://www.w3.org/2000/svg">
<g clip-path="url(#clip0_67_335)">
<path d="M19.167 20.2169C19.167 22.4097 22.3663 23.6731 22.7313 23.8104C22.9043 23.8742 23.0945 23.8742 23.2679 23.8104C23.6343 23.6731 26.8335 22.4097 26.8335 20.2169C26.7995 18.81 25.634 17.6957 24.227 17.7252C23.7932 17.7182 23.3668 17.8382 23.0001 18.0702C22.6337 17.8382 22.2073 17.7182 21.7735 17.7252C20.3665 17.6957 19.2007 18.81 19.167 20.2169ZM21.7735 19.2585C22.0388 19.256 22.2894 19.3817 22.4459 19.5961C22.7527 19.9 23.2475 19.9 23.5546 19.5961C23.7111 19.3817 23.9613 19.256 24.227 19.2585C24.7871 19.2294 25.2662 19.6572 25.3002 20.2169C25.3002 21.0259 23.8919 21.8731 23.0001 22.2641C22.1087 21.8731 20.7003 21.0259 20.7003 20.2169C20.7343 19.6572 21.2134 19.2294 21.7735 19.2585Z" fill="white"/>
<path d="M44.6537 14.8012C44.0893 14.5832 43.4594 14.6131 42.9182 14.8833C42.3977 15.1405 42.0068 15.602 41.8387 16.1576L41.3379 17.8373C40.9978 19.0768 40.2812 20.1802 39.2873 20.9951C38.8058 21.3787 38.3832 21.8311 38.0337 22.3375C37.5164 23.0815 36.8408 23.7009 36.055 24.1516L35.6791 24.3663C35.2531 24.0347 34.7281 23.8561 34.1879 23.8589C33.4008 23.8522 32.6617 24.2375 32.2163 24.8868L29.6779 28.5546C28.5538 28.868 24.66 30.1844 23 33.55C21.3403 30.1844 17.4465 28.868 16.3224 28.5546L13.7924 24.8959C13.3471 24.2411 12.6041 23.8519 11.812 23.8589C11.2722 23.8561 10.7472 24.0347 10.3212 24.3663L9.95232 24.1561C9.16057 23.7038 8.47938 23.0805 7.95892 22.3315C7.61007 21.8276 7.18893 21.3773 6.70918 20.9958C5.71494 20.1806 4.99829 19.0765 4.65857 17.8366L4.15777 16.1576C3.99036 15.6028 3.60116 15.1416 3.0821 14.8833C2.54093 14.6124 1.91028 14.5825 1.3456 14.8012C0.529284 15.1205 -0.00591679 15.9102 4.93747e-05 16.7869V19.5471C0.00145318 20.489 0.22922 21.417 0.664751 22.2526L2.07031 24.9728C2.37283 25.5585 2.76905 26.0913 3.24319 26.5496L7.35247 30.515C10.2345 33.6069 14.2932 38.5788 14.2932 39.9588C14.1476 40.9488 13.797 41.8978 13.2635 42.7446C12.8898 43.4472 12.914 44.2951 13.3278 44.9749C13.7524 45.675 14.5147 46.0997 15.3335 46.092H19.9334C20.8164 46.1018 21.6288 45.6101 22.0296 44.8233C22.4307 43.9898 22.7554 43.1222 23 42.2305C23.2449 43.1222 23.5696 43.9898 23.9707 44.8233C24.3715 45.6101 25.1836 46.1018 26.0666 46.092H30.6669C31.4856 46.0997 32.2482 45.6754 32.6732 44.9749C33.0867 44.2951 33.1112 43.4472 32.7375 42.7446C32.204 41.8978 31.8531 40.9488 31.7071 39.9588C31.7071 38.5788 35.7658 33.6069 38.6201 30.5441L42.7603 26.5496C43.233 26.0909 43.6282 25.5582 43.93 24.9728L45.3306 22.2596C45.7683 21.4233 45.9981 20.494 45.9999 19.5499V16.79C46.0076 15.9119 45.4717 15.1205 44.6537 14.8012ZM20.657 44.134C20.5159 44.4011 20.2355 44.5657 19.9334 44.5587H15.3335C15.0516 44.5664 14.787 44.4228 14.6396 44.1821C14.5038 43.9613 14.4968 43.6844 14.6214 43.457C15.2847 42.3982 15.6967 41.2015 15.8265 39.9588C15.8265 37.4824 9.70139 30.7863 8.44569 29.44L4.30587 25.4459C3.95071 25.104 3.65415 24.7064 3.42779 24.2688L2.02574 21.5479C1.70321 20.9312 1.53441 20.2458 1.53335 19.5499V16.79C1.52739 16.5524 1.66601 16.3352 1.88395 16.2404C1.96046 16.2099 2.04223 16.1938 2.12471 16.192C2.21981 16.1916 2.31387 16.2138 2.39915 16.2566C2.53918 16.324 2.64517 16.4461 2.69184 16.5945L3.19195 18.2721C3.62116 19.8159 4.5196 21.1881 5.76302 22.1989C6.12344 22.486 6.4393 22.8243 6.70076 23.2033C7.34896 24.1379 8.19721 24.9166 9.18409 25.4824L9.49608 25.661C9.45151 25.8337 9.428 26.0113 9.42554 26.1895C9.4287 26.4464 9.47292 26.7016 9.5568 26.9444C9.7414 27.4628 9.91687 28.0226 10.0625 28.5585C10.4163 29.8822 11.1224 31.085 12.1058 32.0392C12.1254 32.0585 12.1465 32.0767 12.1686 32.0936L16.1782 35.1985C16.5133 35.4578 16.9949 35.3964 17.2542 35.0616C17.5136 34.7268 17.4525 34.2449 17.1173 33.9856L13.1414 30.9074C12.3721 30.15 11.8201 29.2 11.5432 28.1566C11.3898 27.5807 11.1982 26.9844 11.0066 26.4492C10.9767 26.3657 10.9603 26.278 10.9574 26.1895C10.9574 26.0439 11.002 25.9018 11.0855 25.7824C11.0915 25.773 11.0922 25.7631 11.0985 25.754C11.1045 25.7445 11.1206 25.727 11.1298 25.7119C11.3105 25.5133 11.5688 25.4041 11.8369 25.4136C12.1051 25.4227 12.3556 25.5491 12.522 25.7593L15.2215 29.6615C15.3324 29.8215 15.4998 29.9335 15.69 29.9752C15.9592 30.0335 22.2335 31.4619 22.2335 36.8921C22.237 39.3913 21.7001 41.8616 20.6595 44.134H20.657ZM44.4666 19.5499C44.4655 20.2472 44.296 20.934 43.9721 21.5517L42.5701 24.2688C42.3433 24.7064 42.0464 25.104 41.6913 25.4459L37.5262 29.4692C36.2993 30.7863 30.1738 37.4824 30.1738 39.9588C30.3033 41.2015 30.7156 42.3982 31.3789 43.457C31.5035 43.6844 31.4965 43.9613 31.3607 44.1821C31.2133 44.4228 30.9487 44.5664 30.6669 44.5587H26.0666C25.7637 44.5664 25.4826 44.4018 25.3408 44.134C24.3003 41.8616 23.7633 39.3913 23.7668 36.8921C23.7668 31.4619 30.0411 30.0335 30.3089 29.9752C30.4987 29.9335 30.6662 29.8215 30.7771 29.6615L33.4825 25.7516C33.6429 25.5333 33.8953 25.401 34.1662 25.3932C34.4371 25.3855 34.6965 25.5034 34.8688 25.7126C34.8779 25.7277 34.8909 25.74 34.9004 25.7547C34.9095 25.7691 34.907 25.7737 34.9134 25.7831C34.9965 25.9025 35.0411 26.0446 35.0415 26.1902C35.039 26.2724 35.0246 26.3538 34.9983 26.4317C34.8021 26.9851 34.6151 27.5818 34.4564 28.1605C34.1792 29.2028 33.6275 30.1518 32.8585 30.9081L28.8826 33.9863C28.5482 34.246 28.4871 34.7282 28.7472 35.0626C29.0069 35.3974 29.4887 35.4582 29.8235 35.1985L33.8331 32.0936C33.8552 32.0767 33.8763 32.0585 33.896 32.0392C34.8786 31.086 35.5847 29.884 35.9385 28.5613C36.0848 28.0247 36.2603 27.4628 36.4505 26.9269C36.5312 26.6893 36.5737 26.4405 36.5762 26.1895C36.5737 26.0113 36.5502 25.8337 36.5056 25.661L36.8246 25.4778C37.807 24.9142 38.6513 24.1389 39.2971 23.2086C39.56 22.8274 39.8772 22.487 40.2394 22.1982C41.4821 21.1881 42.3802 19.8166 42.8091 18.2735L43.3099 16.5945C43.3565 16.4461 43.4625 16.324 43.6026 16.2566C43.7636 16.1776 43.9507 16.1706 44.1171 16.2373C44.3353 16.332 44.474 16.5493 44.4684 16.7869L44.4666 19.5499Z" fill="white"/>
<path d="M19.5035 11.657C16.5197 13.123 14.613 16.1411 14.5705 19.4653C14.4877 22.7646 16.3635 25.8004 19.3508 27.2024C19.5063 27.28 19.6407 27.3947 19.7418 27.5362C20.4903 28.5978 21.7092 29.2281 23.0084 29.2253C24.3073 29.2225 25.5237 28.5869 26.2677 27.5221C26.3642 27.3884 26.492 27.28 26.6404 27.2073C29.5477 25.8379 31.4116 22.9222 31.4333 19.7086C31.4333 15.9302 29.5291 12.8408 26.4632 11.6441C26.2231 11.5472 26.0662 11.3138 26.0666 11.0552V8.05277C26.0631 7.2705 26.5172 6.55842 27.2282 6.23204C27.8866 5.87126 28.2151 5.10899 28.0256 4.38252C27.8361 3.65606 27.177 3.15174 26.4263 3.15841H26.0666V1.8283C26.0659 0.869504 25.2889 0.0924988 24.3304 0.0917969H21.6699C20.7114 0.0924988 19.9344 0.869504 19.9334 1.8283V3.15841H19.574C18.6647 3.1563 17.9252 3.89049 17.921 4.7998C17.921 5.39712 18.2474 5.94636 18.7721 6.23204C19.48 6.5149 19.9415 7.20382 19.9334 7.96608V11.0552C19.9232 11.3236 19.754 11.5602 19.5035 11.657ZM21.4667 1.8283C21.4667 1.716 21.5576 1.6251 21.6699 1.6251H24.3304C24.4424 1.6251 24.5333 1.716 24.5333 1.8283V3.15841H21.4667V1.8283ZM19.5063 4.88579C19.474 4.86894 19.4536 4.8349 19.4543 4.7984C19.4578 4.73593 19.5115 4.6882 19.574 4.69171H26.4263C26.4891 4.6889 26.5425 4.73698 26.546 4.7998C26.5463 4.83595 26.526 4.86929 26.4937 4.88579C25.2885 5.4796 24.5273 6.70898 24.5333 8.05277V11.0552C24.5354 11.9452 25.0787 12.7443 25.9059 13.0738C28.3667 14.0344 29.9 16.5749 29.9 19.7086C29.88 22.3302 28.3569 24.7075 25.9841 25.8218C25.6069 26.0032 25.2801 26.2748 25.0334 26.6132C24.5831 27.2951 23.817 27.7011 23 27.6916C22.1865 27.7088 21.4214 27.3059 20.9754 26.6254C20.7251 26.2808 20.3935 26.0036 20.0102 25.8179C17.5704 24.6777 16.0361 22.2021 16.1003 19.5099C16.1421 16.7813 17.6891 14.299 20.1204 13.0598C20.9259 12.7166 21.4537 11.9308 21.4667 11.0552V7.96608C21.4755 6.64335 20.7083 5.43818 19.5063 4.88579Z" fill="white"/>
<path d="M33.1915 7.98314L31.6582 9.51645C31.4589 9.70912 31.3792 9.9941 31.4494 10.2622C31.5192 10.5304 31.7287 10.7395 31.9969 10.8097C32.265 10.8799 32.55 10.7999 32.7423 10.6005L34.2756 9.06723C34.5662 8.76647 34.562 8.28847 34.2665 7.99262C33.9706 7.69676 33.4926 7.6929 33.1915 7.98314Z" fill="white"/>
<path d="M32.9668 12.3586C32.9668 12.7819 33.31 13.1251 33.7336 13.1251H35.2669C35.6902 13.1251 36.0334 12.7819 36.0334 12.3586C36.0334 11.935 35.6902 11.5918 35.2669 11.5918H33.7336C33.31 11.5918 32.9668 11.935 32.9668 12.3586Z" fill="white"/>
<path d="M13.7999 10.8251C14.1098 10.8251 14.3895 10.6384 14.5081 10.3521C14.6267 10.0657 14.5611 9.73579 14.3417 9.51645L12.8084 7.98314C12.5077 7.6929 12.0297 7.69676 11.7338 7.99262C11.438 8.28847 11.4341 8.76646 11.7244 9.06723L13.2577 10.6005C13.4015 10.7444 13.5967 10.8251 13.7999 10.8251Z" fill="white"/>
<path d="M9.9668 12.3586C9.9668 12.7819 10.31 13.1251 10.7336 13.1251H12.2669C12.6902 13.1251 13.0334 12.7819 13.0334 12.3586C13.0334 11.935 12.6902 11.5918 12.2669 11.5918H10.7336C10.31 11.5918 9.9668 11.935 9.9668 12.3586Z" fill="white"/>
</g>
<defs>
<clipPath id="clip0_67_335">
<rect width="46" height="46" fill="white" transform="translate(0 0.0917969)"/>
</clipPath>
</defs>
</svg>
