<svg width="42" height="43" viewBox="0 0 42 43" fill="none" xmlns="http://www.w3.org/2000/svg">
<g clip-path="url(#clip0_67_343)">
<path d="M13.2999 42.0919H28.6999C29.8597 42.0919 30.7999 41.1517 30.7999 39.9919V35.7695C34.3563 32.8528 36.4126 28.4914 36.3999 23.8919C36.4698 19.9865 34.9468 16.2208 32.1817 13.4619L33.4074 12.2362C33.6751 12.3662 33.9687 12.4342 34.2663 12.435H34.3426C34.9529 12.4316 35.5308 12.1597 35.9225 11.6916V11.6881C36.6138 10.821 36.5354 9.57108 35.7412 8.79713L32.8299 5.88303C32.4514 5.49722 31.9353 5.27742 31.3949 5.27193H31.3172C30.7696 5.27311 30.2453 5.49343 29.8612 5.88373C29.233 6.51379 29.0688 7.47079 29.451 8.27423L27.6849 10.0403C27.0159 9.70673 26.3231 9.42316 25.6122 9.19193C24.1674 3.59193 17.7519 0.873832 15.8087 0.171032C15.297 -0.0105555 14.7266 0.117972 14.3422 0.501432L13.0269 1.79503C12.7496 2.06422 12.5952 2.43553 12.5999 2.82193C12.6039 3.21026 12.7653 3.58034 13.0472 3.84743C14.6195 5.29485 15.7452 7.16159 16.2917 9.22763C10.9307 10.9491 6.93662 15.4591 5.8758 20.9888C4.81497 26.5185 6.85657 32.1864 11.1999 35.7695V39.9919C11.1999 40.5489 11.4211 41.083 11.815 41.4769C12.2088 41.8707 12.7429 42.0919 13.2999 42.0919ZM30.3575 9.34803C30.6334 9.60637 31.0645 9.59907 31.3315 9.33154C31.5984 9.064 31.6048 8.63286 31.3459 8.35753L30.851 7.86263C30.5791 7.58953 30.5791 7.14804 30.851 6.87493C30.9798 6.74327 31.1569 6.67015 31.341 6.67263H31.355C31.5386 6.66494 31.7163 6.73842 31.8408 6.87353L34.7528 9.78553C35.0322 10.0461 35.0753 10.4733 34.8536 10.7844C34.7241 10.9551 34.5171 11.0488 34.3034 11.0336C34.1211 11.0411 33.9448 10.9682 33.8211 10.8341L33.3262 10.3392C33.0509 10.0803 32.6197 10.0867 32.3522 10.3537C32.0847 10.6206 32.0774 11.0518 32.3357 11.3276L29.9809 13.681C29.6296 14.0452 29.1092 14.1915 28.6197 14.0638C28.1301 13.936 27.7476 13.554 27.6191 13.0646C27.4906 12.5752 27.6362 12.0546 27.9999 11.7028L30.3575 9.34803ZM6.9999 23.8919C6.98606 17.8051 10.9168 12.4107 16.7152 10.559C17.4261 10.336 17.8405 9.59797 17.6609 8.87483C17.0296 6.54893 15.7648 4.444 14.0076 2.79463L15.3432 1.49193C17.1121 2.13243 22.983 4.60483 24.257 9.54543C24.3759 10.0147 24.7305 10.3884 25.1929 10.5317C25.7014 10.6952 26.1995 10.8892 26.6846 11.1127C25.8843 12.3052 26.1159 13.9099 27.2209 14.8273C28.3258 15.7447 29.9457 15.6774 30.9707 14.6715L31.1926 14.4496C33.6902 16.9502 35.0644 20.3583 34.9999 23.8919C35.0102 28.1813 33.0426 32.2359 29.6666 34.8819L29.6631 34.8861C28.8395 35.5359 27.9456 36.0912 26.9982 36.5416C26.7663 36.6452 26.6087 36.8663 26.5864 37.1193C26.5641 37.3723 26.6806 37.6176 26.8908 37.7601C27.101 37.9027 27.372 37.9202 27.5988 37.8058C28.2211 37.5091 28.8229 37.171 29.3999 36.7936V39.9919C29.3999 40.3785 29.0865 40.6919 28.6999 40.6919H13.2999C12.9133 40.6919 12.5999 40.3785 12.5999 39.9919V36.7943C13.1762 37.1729 13.7775 37.512 14.3996 37.8093C14.7467 37.9644 15.1542 37.814 15.3173 37.4706C15.4805 37.1272 15.3397 36.7163 15.0002 36.5451C14.0545 36.0951 13.1623 35.5405 12.3402 34.8917L12.3346 34.8854C8.95713 32.2389 6.98884 28.1828 6.9999 23.8919Z" fill="white"/>
<path d="M20.9907 36.492C21.224 36.492 21.4585 36.4857 21.6942 36.4731C25.9091 36.2404 29.7274 33.9124 31.8649 30.2721C34.0023 26.6319 34.1748 22.1632 32.3244 18.369C32.0857 17.8924 31.5981 17.5916 31.0651 17.592H10.9352C10.4017 17.5916 9.9139 17.8927 9.67517 18.3697C7.77555 22.2735 8.01827 26.8799 10.3176 30.5624C12.6169 34.2449 16.6493 36.4851 20.9907 36.492ZM10.9352 18.992H31.0714C32.713 22.3636 32.5578 26.3332 30.6579 29.5662C28.758 32.7993 25.3657 34.8666 21.6214 35.0731C17.6559 35.2972 13.8689 33.4024 11.6707 30.0944C9.47248 26.7864 9.19255 22.5611 10.9352 18.992Z" fill="white"/>
<path d="M20.2997 31.5918C21.4595 31.5918 22.3997 30.6516 22.3997 29.4918C22.3997 28.332 21.4595 27.3918 20.2997 27.3918C19.1399 27.3918 18.1997 28.332 18.1997 29.4918C18.1997 30.6516 19.1399 31.5918 20.2997 31.5918ZM20.2997 28.7918C20.6863 28.7918 20.9997 29.1052 20.9997 29.4918C20.9997 29.8784 20.6863 30.1918 20.2997 30.1918C19.9131 30.1918 19.5997 29.8784 19.5997 29.4918C19.5997 29.1052 19.9131 28.7918 20.2997 28.7918Z" fill="white"/>
<path d="M27.9999 29.4917C29.1597 29.4917 30.0999 28.5515 30.0999 27.3917C30.0999 26.2319 29.1597 25.2917 27.9999 25.2917C26.8401 25.2917 25.8999 26.2319 25.8999 27.3917C25.8999 28.5515 26.8401 29.4917 27.9999 29.4917ZM27.9999 26.6917C28.3865 26.6917 28.6999 27.0051 28.6999 27.3917C28.6999 27.7783 28.3865 28.0917 27.9999 28.0917C27.6133 28.0917 27.2999 27.7783 27.2999 27.3917C27.2999 27.0051 27.6133 26.6917 27.9999 26.6917Z" fill="white"/>
<path d="M29.3997 23.8914C29.7863 23.8914 30.0997 23.578 30.0997 23.1914C30.0997 22.8048 29.7863 22.4915 29.3997 22.4915C29.0131 22.4915 28.6997 22.8048 28.6997 23.1914C28.6997 23.578 29.0131 23.8914 29.3997 23.8914Z" fill="white"/>
<path d="M24.4998 32.2916C24.8864 32.2916 25.1998 31.9782 25.1998 31.5916C25.1998 31.205 24.8864 30.8916 24.4998 30.8916C24.1132 30.8916 23.7998 31.205 23.7998 31.5916C23.7998 31.9782 24.1132 32.2916 24.4998 32.2916Z" fill="white"/>
<path d="M14.7 30.8919C15.0866 30.8919 15.4 30.5785 15.4 30.1919C15.4 29.8053 15.0866 29.4919 14.7 29.4919C14.3134 29.4919 14 29.8053 14 30.1919C14 30.5785 14.3134 30.8919 14.7 30.8919Z" fill="white"/>
<path d="M16.7996 27.3922C17.1862 27.3922 17.4996 27.0788 17.4996 26.6922C17.4996 26.3056 17.1862 25.9922 16.7996 25.9922C16.413 25.9922 16.0996 26.3056 16.0996 26.6922C16.0996 27.0788 16.413 27.3922 16.7996 27.3922Z" fill="white"/>
<path d="M12.5999 27.3922C12.9865 27.3922 13.2999 27.0788 13.2999 26.6922C13.2999 26.3056 12.9865 25.9922 12.5999 25.9922C12.2133 25.9922 11.8999 26.3056 11.8999 26.6922C11.8999 27.0788 12.2133 27.3922 12.5999 27.3922Z" fill="white"/>
<path d="M23.0998 25.9916C24.6462 25.9916 25.8998 24.738 25.8998 23.1916C25.8998 21.6452 24.6462 20.3916 23.0998 20.3916C21.5534 20.3916 20.2998 21.6452 20.2998 23.1916C20.2998 24.738 21.5534 25.9916 23.0998 25.9916ZM23.0998 21.7916C23.873 21.7916 24.4998 22.4184 24.4998 23.1916C24.4998 23.9648 23.873 24.5916 23.0998 24.5916C22.3266 24.5916 21.6998 23.9648 21.6998 23.1916C21.6998 22.4184 22.3266 21.7916 23.0998 21.7916Z" fill="white"/>
<path d="M14.7001 24.5916C15.8599 24.5916 16.8001 23.6514 16.8001 22.4916C16.8001 21.3318 15.8599 20.3916 14.7001 20.3916C13.5403 20.3916 12.6001 21.3318 12.6001 22.4916C12.6001 23.6514 13.5403 24.5916 14.7001 24.5916ZM14.7001 21.7916C15.0867 21.7916 15.4001 22.105 15.4001 22.4916C15.4001 22.8782 15.0867 23.1916 14.7001 23.1916C14.3135 23.1916 14.0001 22.8782 14.0001 22.4916C14.0001 22.105 14.3135 21.7916 14.7001 21.7916Z" fill="white"/>
</g>
<defs>
<clipPath id="clip0_67_343">
<rect width="42" height="42" fill="white" transform="translate(0 0.092041)"/>
</clipPath>
</defs>
</svg>
